# xmcd
#
# Track frame offsets:
#	150
#	17972
#	60257
#	70252
#	84305
#	96740
#	115487
#	132685
#	146252
#	165562
#	179947
#	193910
#	203707
#	213775
#	229167
#	244925
#	257290
#
# Disc length: 3572
#
# Revision: 2
# Processed by: cddbd v1.5.1PL0 Copyright (c) Steve Scherf et al.
# Submitted via: EasyCDDAExtractor 7.0.6.1
# Normalized: r1:DSETVAR1
#
DISCID=fd0df211
DTITLE=Various Artist - Country Stars Of The 80's Vol 2
DYEAR=1900
DGENRE=Country
TTITLE0=Boxcar Willie - Hobo Heaven
TTITLE1=Boxcar Willie - Cold Cold Heart-Take These Chains-Half As Much-I Cant Help It-Cheatin Heart-You Win-Wedding Bells-Lovesick Blues-Move It Over-Washbash
TTITLE2=Babby Bare - White Freight Liner Blues
TTITLE3=Bobby Bare - 500 Miles-Four Strong Winds-Shame On Me
TTITLE4=Bobby Bare - Tequila Sheila
TTITLE5=Bobby Bare - Marie Leveaux
TTITLE6=Freddy Fender - Whisky River
TTITLE7=Freddy Fender - Mexican Rose
TTITLE8=Freddy Fender - Secret Love
TTITLE9=Freddy Fender - Jambalaya
TTITLE10=Freddy Fender - The Rains Came
TTITLE11=Freddy Fender - Before The Next Teardrop Falls
TTITLE12=Freddy Fender - Wasted Days And Wasted Nights
TTITLE13=Johnny Rodriguez - How Could I Love Her So Much
TTITLE14=Johnny Rodriguez - North Of The Border
TTITLE15=Johnny Rodriguez - Love Me With All Your Heart
TTITLE16=Johnny Rodriguez - We're Over
EXTD=
EXTT0=
EXTT1=
EXTT2=
EXTT3=
EXTT4=
EXTT5=
EXTT6=
EXTT7=
EXTT8=
EXTT9=
EXTT10=
EXTT11=
EXTT12=
EXTT13=
EXTT14=
EXTT15=
EXTT16=
PLAYORDER=
